<?xml version="1.0" encoding="UTF-8"?><svg id="Calque_2" xmlns="http://www.w3.org/2000/svg" viewBox="0 0 250 250"><defs><style>.cls-1{fill:#fff;}</style></defs><path class="cls-1" d="M125,0C55.96,0,0,55.97,0,125s55.96,125,125,125,125-55.96,125-125S194.04,0,125,0Zm80.61,205.61c-21.53,21.53-50.16,33.39-80.61,33.39s-59.08-11.86-80.61-33.39c-21.53-21.53-33.39-50.16-33.39-80.61s11.86-59.08,33.39-80.61C65.92,22.86,94.55,11,125,11s59.08,11.86,80.61,33.39c21.53,21.53,33.39,50.16,33.39,80.61s-11.86,59.08-33.39,80.61Z"/><path class="cls-1" d="M160.03,68.19H89.97c-12.03,0-21.78,9.76-21.78,21.78v70.06c0,12.03,9.75,21.78,21.78,21.78h70.06c12.03,0,21.78-9.75,21.78-21.78V89.97c0-12.02-9.75-21.78-21.78-21.78Zm-57.26,51.11c2.54-9.9,11.55-17.24,22.23-17.24s19.69,7.34,22.23,17.24c.47,1.82,.72,3.73,.72,5.7,0,12.65-10.3,22.95-22.95,22.95s-22.95-10.3-22.95-22.95c0-1.97,.25-3.88,.72-5.7Zm44.62-16.2v-18.05h18.06v18.05h-18.06Zm23.42,56.93c0,5.94-4.84,10.78-10.78,10.78H89.97c-5.94,0-10.78-4.84-10.78-10.78v-40.73h12.35c-.31,1.85-.49,3.76-.49,5.7,0,18.75,15.2,33.95,33.95,33.95s33.95-15.2,33.95-33.95c0-1.94-.18-3.85-.49-5.7h12.35v40.73Z"/></svg>