<?xml version="1.0" encoding="UTF-8"?><svg id="Calque_2" xmlns="http://www.w3.org/2000/svg" viewBox="0 0 250 173.05"><defs><style>.cls-1{fill:#fff;}</style></defs><path class="cls-1" d="M243.28-.83H6.72C3.01-.83,0,2.18,0,5.89V166.34c0,3.71,3.01,6.72,6.72,6.72H244.96c2.78,0,5.04-2.25,5.04-5.04V5.89c0-3.71-3.01-6.72-6.72-6.72Zm-4.28,138.39l-81.53-54.38,70.75-43.25c4.14-2.53,7.77-5.72,10.78-9.39v107.02Zm-2-127.39c-1.86,8.47-7.08,15.83-14.52,20.38l-92.39,56.47-.16,.1-.16,.11c-1.45,.96-3.1,1.47-4.77,1.47s-3.31-.51-4.77-1.47l-.16-.11-.16-.1L27.52,30.55c-7.44-4.55-12.67-11.91-14.52-20.38H237ZM11,30.54c3.01,3.67,6.64,6.86,10.78,9.4l70.75,43.24L11,137.56V30.54Zm0,131.52v-11.28l91.87-61.28,11.3,6.91c3.32,2.19,7.07,3.29,10.83,3.29s7.51-1.1,10.83-3.29l11.3-6.91,91.87,61.28v11.28H11Z"/></svg>