<?xml version="1.0" encoding="UTF-8"?><svg id="Calque_2" xmlns="http://www.w3.org/2000/svg" viewBox="0 0 250 250"><defs><style>.cls-1{fill:#fff;}</style></defs><path class="cls-1" d="M125,0C55.96,0,0,55.97,0,125s55.96,125,125,125,125-55.96,125-125S194.04,0,125,0Zm80.61,205.61c-21.53,21.53-50.16,33.39-80.61,33.39s-59.08-11.86-80.61-33.39c-21.53-21.53-33.39-50.16-33.39-80.61s11.86-59.08,33.39-80.61C65.92,22.86,94.55,11,125,11s59.08,11.86,80.61,33.39c21.53,21.53,33.39,50.16,33.39,80.61s-11.86,59.08-33.39,80.61Z"/><circle class="cls-1" cx="90.82" cy="90.53" r="11.65"/><rect class="cls-1" x="79.17" y="107.82" width="23.3" height="62.82"/><path class="cls-1" d="M176.43,137.96c-.08-7.3-.76-15.67-5.43-21.95-3.13-4.21-8.52-8.18-15.26-8.18-9.9,0-15.44,3.86-19.09,8.18v-8.18h-23.3v62.82h23.3v-32.97c0-9.62,4.31-12.67,9.18-12.67,4.57,0,7.31,3.63,7.31,8.4v37.24h23.3v-32.68h0Z"/></svg>